<?xml version="1.0" encoding="UTF-8"?>
<!-- Generator: Adobe Illustrator 26.0.2, SVG Export Plug-In . SVG Version: 6.00 Build 0)  -->
<svg version="1.1" id="レイヤー_1" xmlns="http://www.w3.org/2000/svg" xmlns:xlink="http://www.w3.org/1999/xlink" x="0px" y="0px" viewBox="0 0 780 150" style="enable-background:new 0 0 780 150;" xml:space="preserve">
<style type="text/css">
	.st0{fill:#231815;}
	.st1{fill:#FFFFFF;}
	.st2{fill:none;stroke:#231815;stroke-width:2;stroke-linecap:round;stroke-linejoin:round;}
</style>
<g id="レイヤー_2_00000096780838814856999070000011048137639571008669_">
	<g id="レイヤー_1-2">
		<path class="st0" d="M738.5,73.4c0,0-2.2-5.1-2.9-6.6s-1.7-2.1-2.1-2.8c-0.3-0.7-1.5-2.5-0.4-3.1c0.8-0.6,2-0.5,2.6,0.4    c0.1,0.2,0.2,0.4,0.3,0.6c0.5,2.1,1.2,4.2,2,6.3c0.6,1.4,1.5,2.8,2.5,4c0.5,0.1,1.1-0.2,1.2-0.8c0-0.1,0-0.1,0-0.2    c0-0.9-1-3.3-0.8-5.5c0.2-2.2-0.6-6.4-0.5-8.1s-0.8-4.3,1.3-4.2s2.1,0.5,1.7,2.4s-0.4,4.9-0.8,6.6s0.2,3.7,0.3,5.2s1.1,1.6,2.4,1    c1.4-0.6,2.6-1.7,3.2-3.2c0.9-2.9,2-5.8,3.3-8.6c0.6-1.3,1.2-2.7,1.7-4.1c0.5-0.5,1.3-0.5,1.8,0c0.2,0.2,0.3,0.4,0.3,0.6    c0.2,0.9,0.1,1.8-0.5,2.5c-0.8,1.3-2.3,3.5-2.8,4.3c-0.9,1.6-1.7,3.4-2.3,5.1c-0.3,1.2-0.4,0.8,0.5,2.3c0.5,0.9,1.7,1.2,2.6,0.7    c0.1-0.1,0.3-0.2,0.4-0.3c0.5-0.5,4.4-6.1,5.6-8c1.3-2.2,2.7-4.2,4.3-6.2c1.2-1.3,1.9-2,3-1.3s2,1.9,0.8,2.6s-3.3,1.6-4.5,2.9    s-3.7,5.4-4.4,6.3c-0.7,0.9-1.9,2.4-2,3.2c-0.1,0.8,0.8,0.1,2,0.4s3.7,0.8,5.3,1.4s1.8,1.9,4.3,0.8s3.8-1.2,5.5-3.1s2.8-3,3.5-2.2    c0.8,1.1,0.8,2.7-0.2,3.7c-1.2,1-3.1,2.4-3.9,3.2c-1,1.4-1.8,2.9-2.4,4.6c-0.3,0.9,0.6,3.3,0.4,4c-0.3,0.7,0.3,1.3,2,1    c1.7-0.4,2.4-0.7,3.7-0.2c1,0.3,1.7,1.1,2,2.1c0.2,0.7,0.2,1.4-0.1,2c-0.5-0.9-1.4-1.6-2.5-1.7c-1.5,0-2.6-0.4-3.7,0.1    c-1.1,0.3-2,1.1-2.4,2.2c-0.6,1.3-0.9,1.6,0,2.9c0.9,1.2,3.3,1.9,4.4,2.9s1.4,1.4,1.2,2.3c-0.2,0.8-1.8,0.9-2.9-0.1    s-4.8-3.9-5.9-4c-1.1-0.1-1.5-0.5-1.8,0.2s-1,0.3,0,1.8s2.2,2.4,2.8,4.4s2.5,5,2.4,6.1c-0.1,1.1-0.2,0.8-1.2,0.9    c-1,0-1.1-0.4-1.5-2.2c-0.4-1.9-1.2-3.7-2.4-5.2c-1.2-1.4-3-3.8-3.6-3.6s-0.2,0.4-1.8,1.3c-0.8,0.4-1.6,0.9-2.3,1.5    c-0.6,0.4-0.2,1.6,0.1,3.1s2.2,3.8,2.3,5.9c0.2,1.5,0.2,3.1,0.2,4.6c-0.2,0.8-1.4,1.6-1.8,0.7c-0.4-0.9-0.3-3-0.9-4.8    c-0.6-1.8-0.9-4.2-1.7-5.7s-0.7-2.2-1.2-1.9c-0.4,0.4-1.2,0.1-1.4,1.6s0.6,4.2,0.5,6.2c-0.2,1.5-0.5,3.1-1,4.5    c-0.3,1.5-0.7,2.6-1.7,2.2s-1.6-0.6-1.2-3.6c0.4-3,1.3-6.3,1.2-7.2c-0.1-0.7-0.3-1.4-0.6-2c0,0-2.3,0.9-2.7,1.1s-1,0.5-1.1,0.9    c-0.1,0.5-1.1,5.5-1.6,6.9c-0.5,1.4-1.1,2.8-1.6,3.9c-0.5,1.1-0.4,2-1.5,1.2c-1.2-1-1.6-2.7-0.9-4.1c0.7-1.7,2-3,2.4-4.8    c0.3-1,0.5-2,0.6-3c-0.1-0.6,0-0.6-1.7,0.2c-1.7,0.7-3.1,1.9-4.2,3.3c-0.9,1.3-3.1,3.7-3.6,4.5c-0.5,0.8-1.2,2.2-1.9,1.5    s-1.8-0.7-1.5-1.9c0.3-1.2,2.6-2.2,3.6-3.8s4.4-4.3,4.6-5s-1.2,0-2.5-0.6s-2.4-0.7-3.1-0.2s-5.4,2.1-6.3,2.8c-1,0.8-2.1,1.3-3.1,2    c-0.5,0.4-1,0.8-1.6,1.1c-0.7,0.3-1.1,0.6-1.5-0.7c-0.5-1.3-0.3-2,1.2-2.5s6-2.5,7.2-3c1-0.6,2-1.2,3-1.9c0,0-1.2-1.1-2.1-1.9    s1.2-0.1-0.8-0.8c-2-0.7-5.7,0-7.2-0.4c-1.5-0.4-4.3,0.1-3.1-1.8c0.7-1.3,2.2-2,3.6-1.6c0.8,0.2,1.8,0.3,2.5,0.6s1.1,0.4,1.9-0.4    s-0.3-1.3-0.2-2.9s0.2-3.7,0.7-4.6s0.9-0.7-0.5-1.7s-2.3-2.1-3.8-3.2s-2.8-2.5-1.5-3.5s3-1,3.1,0.5c0.1,1.3,0.7,2.6,1.5,3.6    c0.6,0.6,2.2,1.2,2.9,1.8c0.7,0.6,3.5,0.1,3.4-1c-0.1-1.2-0.7-1.8-1.8-4.1s-4.4-5.6-4.5-6.5s-0.1-1.2,1.1-1.5s1.9-0.1,2.6,2.3    s4,6.1,4.6,6.6s1.8-0.6,2.8-1.2C737.8,74.4,738.2,73.9,738.5,73.4z"/>
		<path class="st1" d="M734,81.7c-1.2,0.9-3.3,2.3-4,3.6c-0.5,1.2-0.6,2.5-0.5,3.7c0.3,2.4,1.7,4.5,3.7,5.8c2.5,1.3,7.3,0.6,9,0.3    c1.7-0.3,5.4-3.1,6.6-5.2c1.2-2.1,1.6-3,0.8-4.4c-1.2-2.2-3-3.9-5.3-4.8C741.7,79.6,738.6,78,734,81.7z"/>
		<path class="st1" d="M750.3,78.7c0.2,1.8,0.8,3.6,1.7,5.1c1.2,2.4,2.9,3.6,7,4c4.1,0.4,6.1-1,7.4-2.2s2.9-4.8,2.3-6.7    c-0.6-1.8-1.7-3.4-3.1-4.8c-1.4-1.5-5.6-3.5-7.6-3.6c-2-0.1-3.3,1.1-4.4,2.3S750.3,77.7,750.3,78.7z"/>
		<path class="st0" d="M756.9,76.1c-0.8,0.5-1.4,1.2-1.4,2.9s2.1,3.5,3.1,3.9s4.9-2.3,2.7-5.3S757.7,75.7,756.9,76.1z"/>
		<path class="st0" d="M736.4,84.6c-0.6,0.5-0.4,0.6-0.9,1.4c-0.4,0.6-0.7,1.3-0.8,2c0.1,1,0.6,1.8,1.5,2.3c0.7,0.5,1.6,0.6,2.5,0.5    c0.8-0.2,1.6-0.7,2.1-1.4c0.7-1,0.5-1.7-0.2-3.1s-1.5-1.9-2.2-2S737.1,83.9,736.4,84.6z"/>
		<path class="st0" d="M763.8,63.8c-1.2,0.6-1.7,0-2.3,0.1s-0.7,0-1.4,0.9c-0.7,0.9-1,2-0.2,2.5c0.8,0.6,2.5-0.1,3.4-0.6    c1.7-0.9,3.3-2,4.9-3.3c1.5-1.3,1.8-1.9,3.2-2.6s2.6-1.1,2-2.2s-1.7-0.3-2.7,0.3s-1.4,1.2-3.1,2.6    C766.5,62.6,765.2,63.3,763.8,63.8z"/>
		<path class="st2" d="M698.1,80.4c0,0-14.1-0.1-19.2-11.6c-4.7-10.5-4.1-32.5-19.1-52.4c-9-11.9-28.2-13.9-90.3-12.8    s-386-2-441.8-1s-103,1-114.9,18.8c-11.6,17.4-11.7,98-1.1,109.6s29.4,16.9,74.6,16.9s335.6-0.1,416.7-1.2s110.8-0.4,122.5-1.5    c35.1-2.1,42.1-8.7,49.1-52.7C676.6,81.4,695.8,79.7,698.1,80.4z"/>
	</g>
</g>
</svg>