<?xml version="1.0" encoding="UTF-8"?>
<!-- Generator: Adobe Illustrator 27.1.1, SVG Export Plug-In . SVG Version: 6.00 Build 0)  -->
<svg version="1.1" id="レイヤー_1" xmlns="http://www.w3.org/2000/svg" xmlns:xlink="http://www.w3.org/1999/xlink" x="0px" y="0px" viewBox="0 0 950 150" style="enable-background:new 0 0 950 150;" xml:space="preserve">
<style type="text/css">
	.st0{fill:#231815;}
	.st1{fill:#FFFFFF;}
	.st2{fill:none;stroke:#231815;stroke-width:2.2307;stroke-linecap:round;stroke-linejoin:round;}
</style>
<path class="st0" d="M45.2,74.7c1,0.6,2.2,1.7,2.8,1.2s3.9-4.2,4.6-6.6s1.4-2.6,2.6-2.3s1.2,0.6,1.1,1.5s-3.4,4.2-4.5,6.5  s-1.7,2.9-1.8,4.1c-0.1,1.1,2.7,1.6,3.4,1c0.7-0.6,2.3-1.2,2.9-1.8c0.8-1,1.4-2.3,1.5-3.6c0.1-1.5,1.8-1.5,3.1-0.5s0,2.4-1.5,3.5  s-2.4,2.2-3.8,3.2s-1,0.8-0.5,1.7s0.6,3,0.7,4.6s-1,2.1-0.2,2.9s1.2,0.7,1.9,0.4s1.7-0.4,2.5-0.6c1.4-0.4,2.9,0.3,3.6,1.6  c1.2,1.9-1.6,1.4-3.1,1.8s-5.2-0.3-7.2,0.4c-2,0.7,0.1,0-0.8,0.8s-2.1,1.9-2.1,1.9c1,0.7,2,1.3,3,1.9c1.2,0.5,5.7,2.5,7.2,3  s1.7,1.2,1.2,2.5c-0.4,1.3-0.8,1-1.5,0.7c-0.6-0.3-1.1-0.7-1.6-1.1c-1-0.7-2.1-1.2-3.1-2c-0.9-0.7-5.6-2.3-6.3-2.8s-1.8-0.4-3.1,0.2  s-2.7-0.1-2.5,0.6s3.6,3.4,4.6,5s3.3,2.6,3.6,3.8c0.3,1.2-0.8,1.2-1.5,1.9s-1.4-0.7-1.9-1.5s-2.7-3.2-3.6-4.5  c-1.1-1.4-2.5-2.6-4.2-3.3c-1.7-0.8-1.6-0.8-1.7-0.2c0.1,1,0.3,2,0.6,3c0.4,1.8,1.7,3.1,2.4,4.8c0.7,1.4,0.3,3.1-0.9,4.1  c-1.1,0.8-1-0.1-1.5-1.2s-1.1-2.5-1.6-3.9s-1.5-6.4-1.6-6.9c-0.1-0.4-0.7-0.7-1.1-0.9s-2.7-1.1-2.7-1.1c-0.3,0.6-0.5,1.3-0.6,2  c-0.1,0.9,0.8,4.2,1.2,7.2c0.4,3-0.2,3.2-1.2,3.6s-1.4-0.7-1.7-2.2c-0.5-1.4-0.8-3-1-4.5c-0.1-2,0.7-4.7,0.5-6.2s-1-1.2-1.4-1.6  c-0.5-0.3-0.4,0.4-1.2,1.9s-1.1,3.9-1.7,5.7c-0.6,1.8-0.5,3.9-0.9,4.8c-0.4,0.9-1.6,0.1-1.8-0.7c0-1.5,0-3.1,0.2-4.6  c0.1-2.1,2-4.4,2.3-5.9s0.7-2.7,0.1-3.1c-0.7-0.6-1.5-1.1-2.3-1.5c-1.6-0.9-1.2-1.1-1.8-1.3s-2.4,2.2-3.6,3.6  c-1.2,1.5-2,3.3-2.4,5.2c-0.4,1.8-0.5,2.2-1.5,2.2c-1-0.1-1.1,0.2-1.2-0.9s1.8-4.1,2.4-6.1s1.8-2.9,2.8-4.4s0.3-1.1,0-1.8  s-0.7-0.3-1.8-0.2c-1.1,0.1-4.8,3-5.9,4s-2.7,0.9-2.9,0.1c-0.2-0.9,0.1-1.3,1.2-2.3s3.5-1.7,4.4-2.9c0.9-1.3,0.6-1.6,0-2.9  c-0.4-1.1-1.3-1.9-2.4-2.2c-1.1-0.5-2.2-0.1-3.7-0.1c-1.1,0.1-2,0.8-2.5,1.7c-0.3-0.6-0.3-1.3-0.1-2c0.3-1,1-1.8,2-2.1  c1.3-0.5,2-0.2,3.7,0.2c1.7,0.3,2.3-0.3,2-1c-0.2-0.7,0.7-3.1,0.4-4c-0.6-1.7-1.4-3.2-2.4-4.6c-0.8-0.8-2.7-2.2-3.9-3.2  c-1-1-1-2.6-0.2-3.7c0.7-0.8,1.8,0.3,3.5,2.2s3,2,5.5,3.1s2.7-0.2,4.3-0.8s4.1-1.1,5.3-1.4s2.1,0.4,2-0.4c-0.1-0.8-1.3-2.3-2-3.2  s-3.2-5-4.4-6.3s-3.3-2.2-4.5-2.9s-0.3-1.9,0.8-2.6s1.8,0,3,1.3c1.6,2,3,4,4.3,6.2c1.2,1.9,5.1,7.5,5.6,8c0.1,0.1,0.3,0.2,0.4,0.3  c0.9,0.5,2.1,0.2,2.6-0.7c0.9-1.5,0.8-1.1,0.5-2.3c-0.6-1.7-1.4-3.5-2.3-5.1c-0.5-0.8-2-3-2.8-4.3c-0.6-0.7-0.7-1.6-0.5-2.5  c0-0.2,0.1-0.4,0.3-0.6c0.5-0.5,1.3-0.5,1.8,0c0.5,1.4,1.1,2.8,1.7,4.1c1.3,2.8,2.4,5.7,3.3,8.6c0.6,1.5,1.8,2.6,3.2,3.2  c1.3,0.6,2.3,0.5,2.4-1s0.7-3.5,0.3-5.2c-0.4-1.7-0.4-4.7-0.8-6.6s-0.4-2.3,1.7-2.4s1.2,2.5,1.3,4.2s-0.7,5.9-0.5,8.1  c0.2,2.2-0.8,4.6-0.8,5.5c0,0.1,0,0.1,0,0.2c0.1,0.6,0.7,0.9,1.2,0.8c1-1.2,1.9-2.6,2.5-4c0.8-2.1,1.5-4.2,2-6.3  c0.1-0.2,0.2-0.4,0.3-0.6c0.6-0.9,1.8-1,2.6-0.4c1.1,0.6-0.1,2.4-0.4,3.1c-0.4,0.7-1.4,1.3-2.1,2.8s-2.9,6.6-2.9,6.6  C44.4,73.9,44.8,74.4,45.2,74.7z"/>
<path class="st1" d="M38.3,80.7c-2.3,0.9-4.1,2.6-5.3,4.8c-0.8,1.4-0.4,2.3,0.8,4.4c1.2,2.1,4.9,4.9,6.6,5.2c1.7,0.3,6.5,1,9-0.3  c2-1.3,3.4-3.4,3.7-5.8c0.1-1.2,0-2.5-0.5-3.7c-0.7-1.3-2.8-2.7-4-3.6C44,78,40.9,79.6,38.3,80.7z"/>
<path class="st1" d="M29,72.8c-1.1-1.2-2.4-2.4-4.4-2.3s-6.2,2.1-7.6,3.6c-1.4,1.4-2.5,3-3.1,4.8c-0.6,1.9,1,5.5,2.3,6.7  s3.3,2.6,7.4,2.2s5.8-1.6,7-4c0.9-1.5,1.5-3.3,1.7-5.1C32.3,77.7,30.1,74,29,72.8z"/>
<path class="st0" d="M21.3,77.6c-2.2,3,1.7,5.7,2.7,5.3s3.1-2.2,3.1-3.9s-0.6-2.4-1.4-2.9C24.9,75.7,23.5,74.6,21.3,77.6z"/>
<path class="st0" d="M44.2,84.3c-0.7,0.1-1.5,0.6-2.2,2s-0.9,2.1-0.2,3.1c0.5,0.7,1.3,1.2,2.1,1.4c0.9,0.1,1.8,0,2.5-0.5  c0.9-0.5,1.4-1.3,1.5-2.3c-0.1-0.7-0.4-1.4-0.8-2c-0.5-0.8-0.3-0.9-0.9-1.4C45.5,83.9,44.9,84.2,44.2,84.3z"/>
<path class="st0" d="M15,61.5c-1.7-1.4-2.1-2-3.1-2.6s-2.1-1.4-2.7-0.3s0.6,1.5,2,2.2s1.7,1.3,3.2,2.6c1.6,1.3,3.2,2.4,4.9,3.3  c0.9,0.5,2.6,1.2,3.4,0.6c0.8-0.5,0.5-1.6-0.2-2.5c-0.7-0.9-0.8-0.8-1.4-0.9s-1.1,0.5-2.3-0.1C17.4,63.3,16.1,62.6,15,61.5z"/>
<path class="st2" d="M113.7,92.5c8.7,44,17.4,50.6,61.1,52.7c14.6,1.1,51.5,0.4,152.4,1.5s462.1,1.2,518.4,1.2s79.6-5.3,92.8-16.9  c13.2-11.6,13.1-92.2-1.4-109.6C922.1,3.6,863.4,3.6,794,2.6s-472.3,2.1-549.6,1S143.3,4.5,132.1,16.4  c-18.7,19.9-17.9,41.9-23.8,52.4C102,80.3,84.5,80.4,84.5,80.4C87.3,79.7,111.2,81.4,113.7,92.5z"/>
</svg>