<svg xmlns="http://www.w3.org/2000/svg" viewBox="0 0 710 710" xmlns:v="https://vecta.io/nano"><path d="M662.2 543.7l-3.7 3.1 3.7-3.1z" fill="#ee8589"/><g fill="#93ce99"><path d="M128.7 575l-2.3-.4 2.3.4zm-63-19.2l-1.7-.9c.6.4 1.1.6 1.7.9zm-8.7-5.1l-1.5-1c.5.4 1 .7 1.5 1zm13.9 7.8l-1.8-.9 1.8.9zm-2.6-1.3l-1.7-.9c.5.3 1.1.6 1.7.9zm-13.6-8c-.5-.3-.9-.7-1.4-1 .5.3.9.6 1.4 1zm624.7-44.3c-3.1-74.7-81.3-152-90.5-149.8v-.1c9.2 2.2 87.4-75.1 90.5-149.8 3.3-80-175.5-75.9-175.5-75.9C414.9 14.4 355 1.3 355 1.3s-59.9 13.1-148.9 127.9c-95.8-2.3-169 20.8-174.7 76.8 17.4 11.6 35.2 22.6 51.7 35.4h0c1.5-2 3.9-3.3 7.1-3.3 8.9 0 11.3 10 7.3 15.5 1 .9 2 1.9 3 2.8h0c3-2 7.1-2.5 10-.4 33.2 21.3 53.3 68.2 2.5 103.7h0c-29 20-77.8 82.3-82.3 145.2-.5 12.1 3.2 22.2 9.7 30.8l-.9-1.2c5 .7 10 1.3 15.1 1.6 20.5 1.5 41.1 0 61.4-2.8 30.8-4.2 61.6-12.8 89.8-25.9 11.6-5.4 23.9-12.3 32.6-22.1-15.7-19.9-22.1-49.4-18.2-88.2-.1-12.2 18.9-12.2 19 0-7.8 75.9 25.1 109.5 101.4 98.1 12-2.9 17 15.1 5 18.3-3.4.5-6.8 1-10.1 1.3.3 0 .7-.1 1-.1 19 9.1 39.3 15.5 59.8 20 45.2 9.8 91.8 10.9 138 8.7 19.1-13.8 42.1-22.7 65.8-25.7 5.1-.7 9.5 4.9 9.5 9.5 0 5.6-4.4 8.8-9.5 9.5-5.5.7-11 1.8-16.4 3.3 30.9-2.7 62.5-6.5 92.5-15.5 2.3-6 3.5-12.5 3.2-19.6h0 0zm-46.8 26.7c-12.2 0-12.2-19 0-19s12.2 19 0 19zM52.5 547.5c-.5-.3-.9-.7-1.4-1 .5.4.9.7 1.4 1zm137.6 33.2h-.9.9zm1.9 0h-.7.7zm482.7-53.1c-.1.3-.3.5-.4.8.1-.2.2-.5.4-.8zm-596.6 34l-6.6-2.8 6.6 2.8zm595.8-32.5c-.3.5-.5 1-.8 1.4.3-.4.5-.9.8-1.4zM50.5 546c-1.5-1.2-3-2.5-4.4-3.9l4.4 3.9zm36.1 18.7l-2.1-.7c.7.3 1.4.5 2.1.7zm-44.7-27.1c-.3-.4-.7-.8-1-1.2.3.4.7.8 1 1.2z"/><path d="M94.4 567.2l-7.5-2.4 7.5 2.4zM676 524.6c-.1.2-.2.4-.3.7.1-.2.2-.5.3-.7zM97.3 568.1l-2.2-.6 2.2.6zm-51.9-26.7c-.4-.4-.7-.8-1.1-1.1l1.1 1.1zm-1.8-1.9l-1-1.1c.3.4.7.7 1 1.1zm40.1 24.2c-.7-.2-1.3-.5-2-.7.7.2 1.3.5 2 .7zm-2.9-1.1c-.7-.2-1.3-.5-2-.8l2 .8zm594.6-36.4l-.3.6.3-.6zm-487.3 54.4h-1 1zM63.3 554.5l-5.6-3.3 5.6 3.3zm48.2 17.1l-2.3-.5c.7.2 1.5.4 2.3.5zm37.1 6.2c-.7-.1-1.3-.2-2-.2.6 0 1.3.1 2 .2zm-34.1-5.5c-.7-.2-1.5-.3-2.2-.5.7.2 1.4.4 2.2.5zm37 5.8c-.7-.1-1.3-.2-2-.2l2 .2zm-42.4-7l-8-2 8 2zm8.5 1.9c-.7-.2-1.5-.3-2.2-.5.7.1 1.4.3 2.2.5zm14.2 2.5l-2.2-.3 2.2.3zm11.1 1.6l-7.4-1 7.4 1zm43.1 3.4h-1 1zm-51.2-4.5l-2.2-.3c.8 0 1.5.1 2.2.3zm24.1 2.8l-6.7-.7 6.7.7zm-58.6-9.9l-2.2-.6 2.2.6zm25.8 5.7l-7.8-1.5 7.8 1.5zm19.6 2.8l-2.1-.3c.6.2 1.3.2 2.1.3zm27.8 2.5c-.5 0-1-.1-1.6-.1.5.1 1 .1 1.6.1zm2.4.2c-.5 0-1 0-1.4-.1.5 0 .9.1 1.4.1zm2.4.1c-.4 0-.9 0-1.4-.1.5.1 1 .1 1.4.1zm5.2.3c-.5 0-1.1 0-1.6-.1.5 0 1.1 0 1.6.1zm-21.9-1.4c-.6 0-1.2-.1-1.8-.2.6.1 1.2.1 1.8.2zm19.1 1.2c-.4 0-.8 0-1.2-.1.3.1.7.1 1.2.1zm-13.7-.8c-.6 0-1.1-.1-1.7-.1.5 0 1.1.1 1.7.1zm4.6.3l-3.8-.3c1.3.2 2.6.2 3.8.3zm-7.3-.5c-.6 0-1.2-.1-1.8-.1.6 0 1.2 0 1.8.1z"/></g><path d="M642.4 556.8l-6.8 3.2 6.8-3.2zm-444.6 24h-2.5 2.5z" fill="#ee8589"/><path d="M396.3 534.6c-20.5-4.4-40.8-10.8-59.8-20-.3 0-.7.1-1 .1l-2.8.3c-.5 0-.9.1-1.4.1-.9.1-1.8.2-2.6.2-.5 0-1 .1-1.4.1-.9.1-1.7.1-2.6.2-.5 0-.9 0-1.4.1-.9 0-1.7.1-2.5.1h-1.4c-.9 0-1.7 0-2.5.1h-1.3-2.6-1.2c-.9 0-1.8 0-2.6-.1h-1.1c-.9 0-1.8-.1-2.7-.1h-.9c-1-.1-2-.1-3-.2h-.6c-6-.5-11.6-1.4-17-2.6h-.1c-1-.2-2.1-.5-3.1-.8-.1 0-.2 0-.3-.1-.9-.2-1.9-.5-2.8-.8-.1 0-.3-.1-.4-.1-.9-.3-1.8-.5-2.6-.8-.1 0-.3-.1-.4-.1-.9-.3-1.7-.6-2.5-.9-.2 0-.3-.1-.4-.2-.8-.3-1.6-.6-2.4-1-.1-.1-.3-.1-.4-.2-.8-.3-1.6-.7-2.4-1-.1 0-.2-.1-.3-.2l-2.4-1.2c-.1 0-.2-.1-.2-.1-.8-.4-1.7-.9-2.5-1.3 0 0-.1 0-.1-.1-8.7-4.8-16.1-11-22.2-18.7-8.7 9.8-21 16.7-32.6 22.1-28.2 13.2-59 21.8-89.8 25.9-20.3 2.8-40.9 4.2-61.4 2.8-5-.4-10.1-.9-15.1-1.6l.9 1.2c.2.3.4.5.6.8.3.4.6.8 1 1.2.2.3.4.5.7.8.3.4.7.8 1 1.1.2.3.5.5.7.8.4.4.7.8 1.1 1.1l.7.7c1.4 1.3 2.8 2.6 4.4 3.9.2.2.4.4.7.5.5.4.9.7 1.4 1 .3.2.5.4.8.6.5.3.9.7 1.4 1 .3.2.5.4.8.6.5.3 1 .7 1.5 1 .2.2.5.3.7.5 1.8 1.2 3.7 2.3 5.6 3.3.2.1.5.3.7.4.6.3 1.1.6 1.7.9.3.2.6.3.9.5.6.3 1.1.6 1.7.9.3.1.6.3.8.4l1.8.9.6.3c2.2 1 4.3 1.9 6.6 2.8.2.1.5.2.7.3.7.3 1.3.5 2 .8l.9.3c.7.2 1.3.5 2 .7.3.1.5.2.8.3.7.2 1.4.5 2.1.7.1 0 .2.1.3.1l7.5 2.4c.2.1.5.2.7.2l2.2.6c.3.1.6.2.9.2l2.2.6c.3.1.5.1.8.2l8 2c.8.2 1.6.4 2.3.5.3.1.5.1.8.2.7.2 1.5.3 2.2.5.3.1.6.1.9.2.7.2 1.5.3 2.2.5.2 0 .5.1.7.1l7.8 1.5c.1 0 .2 0 .3.1.8.1 1.5.3 2.3.4.3 0 .6.1.8.1l2.2.3c.3 0 .6.1.9.1l2.2.3c.2 0 .5.1.7.1 2.5.4 5 .7 7.4 1 .2 0 .4 0 .6.1l2.1.3c.3 0 .6.1.9.1.7.1 1.3.2 2 .2.3 0 .6.1.9.1.7.1 1.3.2 2 .2.2 0 .5 0 .8.1 2.3.2 4.5.5 6.7.7.3 0 .6 0 .8.1.6 0 1.2.1 1.8.2.3 0 .6.1 1 .1.6 0 1.2.1 1.8.1.3 0 .6 0 1 .1.6 0 1.1.1 1.7.1.3 0 .6 0 .9.1l3.8.3h.3c.5 0 1 .1 1.6.1.3 0 .7 0 1 .1.5 0 1 .1 1.4.1s.7 0 1.1.1c.5 0 .9 0 1.4.1h1.1c.4 0 .8 0 1.2.1.4 0 .8 0 1.2.1.6 0 1.1 0 1.6.1.5 0 1 0 1.5.1h1 1.1 1 1.1.9 1.2.7 1.8.1 1.4 2.5 1.2.1 1.4.1 2.3.1.9.1.8 1.1.3 0 .1c89 114.8 148.9 127.9 148.9 127.9s55.1-12.1 138.1-114.3c.5-1.3 1.1-2.6 1.7-3.9.2-.5.5-1 .7-1.5.4-.8.7-1.5 1.1-2.3.3-.6.7-1.3 1-1.9s.6-1.2 1-1.8l1.2-2.1.9-1.5 1.4-2.3c.3-.4.5-.8.8-1.3.5-.8 1.1-1.6 1.6-2.4.2-.3.5-.7.7-1 .6-.8 1.2-1.7 1.8-2.5.2-.3.4-.6.6-.8l2-2.6c.2-.2.4-.4.5-.7.7-.9 1.5-1.8 2.2-2.7.1-.2.3-.3.4-.5l2.4-2.7c.1-.1.2-.2.3-.4.9-.9 1.7-1.8 2.6-2.7l.2-.2c.9-.9 1.9-1.8 2.8-2.7l.2-.2 3-2.7s.1 0 .1-.1c1-.9 2.1-1.8 3.1-2.7 1.1-.9 2.2-1.7 3.3-2.6h0c1.1-.8 2.2-1.7 3.4-2.5-46.5 2.5-93.1 1.3-138.3-8.5h0 0zm187.3 5.3h0 0l-4.2 1.3c-.2.1-.4.1-.5.2l-4.1 1.4c-.1 0-.2.1-.2.1l-4 1.5c-.1 0-.2.1-.3.1l-4 1.7c-.2.1-.4.2-.6.2l-7.8 3.9c-.2.1-.3.2-.5.3l-3.7 2.1c-.2.1-.4.2-.5.3l-3.6 2.3-3.5 2.4c-.2.2-.4.3-.6.4l-3.3 2.5c-.1.1-.3.2-.5.4l-3 2.5c-.1.1-.2.2-.4.3l-3.1 2.7-.6.6-3 2.9-.3.3-2.7 2.8-.5.5-2.6 3c-.2.2-.4.4-.5.6l-2.6 3.2 2.1-.1h.7c.5 0 1 0 1.5-.1h.9c.5 0 .9 0 1.4-.1h1c.4 0 .9 0 1.4-.1h1.1c.4 0 .9 0 1.3-.1.4 0 .7 0 1.1-.1.5 0 .9 0 1.4-.1.4 0 .8 0 1.1-.1.5 0 1-.1 1.5-.1.4 0 .7 0 1.1-.1.6 0 1.2-.1 1.8-.1s1.1-.1 1.7-.1 1.1-.1 1.7-.1c.4 0 .9-.1 1.3-.1.5 0 .9-.1 1.4-.1s1-.1 1.4-.1.9-.1 1.3-.1c.5 0 1-.1 1.5-.1.4 0 .8-.1 1.3-.1s1-.1 1.6-.2c.4 0 .8-.1 1.3-.1.5-.1 1.1-.1 1.6-.2.4 0 .8-.1 1.2-.1l1.7-.2c.4 0 .7-.1 1.1-.1.6-.1 1.2-.1 1.9-.2h.3l5-.6h.4l2.1-.3c.3 0 .6-.1 1-.1l2-.3c.3 0 .7-.1 1-.2l2-.3c.3 0 .7-.1 1-.2l2-.3c.3-.1.7-.1 1-.2l2.1-.3c.3 0 .6-.1.9-.2l2.2-.4c.2 0 .4-.1.5-.1l10.9-2.2c.2 0 .3-.1.5-.1l2.3-.5c.2-.1.5-.1.8-.2l2.2-.5c.3-.1.5-.1.8-.2l2.2-.6c.2-.1.5-.1.8-.2l2.3-.6c.2 0 .4-.1.6-.2l2.4-.7h.2c3.7-1.1 7.3-2.2 10.9-3.5.1 0 .2-.1.3-.1.8-.3 1.5-.5 2.3-.8.2-.1.4-.1.6-.2.7-.3 1.5-.5 2.2-.8.2-.1.4-.2.6-.2.7-.3 1.4-.6 2.1-.8.2-.1.4-.2.6-.2.7-.3 1.4-.6 2.2-.9.1-.1.3-.1.4-.2a141.51 141.51 0 0 0 6.8-3.2l5-2.7c.1 0 .2-.1.2-.1.7-.4 1.3-.8 1.9-1.1.2-.1.3-.2.5-.3.6-.4 1.2-.8 1.8-1.1.2-.1.3-.2.5-.3.6-.4 1.2-.8 1.7-1.2.2-.1.3-.2.5-.3.6-.4 1.2-.8 1.7-1.2a1.38 1.38 0 0 1 .4-.3c.6-.4 1.2-.9 1.8-1.3h0c1.3-1 2.5-2 3.7-3.1s2.3-2.2 3.4-3.3l.3-.3c.5-.5.9-1 1.3-1.4.1-.2.3-.3.4-.4.4-.5.8-.9 1.2-1.4.1-.2.3-.3.4-.5.4-.5.7-1 1.1-1.4.1-.2.2-.3.4-.5.4-.5.7-1 1-1.5.1-.2.2-.3.3-.5.3-.5.7-1.1 1-1.6 0-.1.1-.1.1-.2.3-.5.5-1 .8-1.4.1-.2.2-.5.3-.7.1-.3.3-.5.4-.8s.3-.6.4-.8l.3-.6c.1-.3.3-.6.4-.9.1-.2.2-.4.3-.7 0-.1.1-.2.1-.2h0c-29.8 8.5-61.4 12.4-92.3 15 0 .1 0 .1 0 0h0 0zM97.5 253.6h0c-.2.2-.4.5-.6.7l-.1.1-.6.6c-.1 0-.1.1-.1.1-.2.2-.4.3-.6.5-.1.1-.1.1-.2.1-.2.1-.4.2-.6.4-.1.1-.2.1-.3.1l-.6.3c-.1 0-.2.1-.3.1-.2.1-.4.1-.7.2-.1 0-.2.1-.3.1-.2.1-.5.1-.8.1-.1 0-.2 0-.3.1-.4 0-.8.1-1.2.1-.3 0-.7 0-1-.1h-.3c-.2 0-.5-.1-.7-.1-.1 0-.2 0-.2-.1-.3-.1-.6-.1-.9-.2H87c-.2-.1-.5-.2-.7-.3-.1 0-.2-.1-.2-.1l-.6-.3s-.1-.1-.2-.1c-.2-.1-.5-.3-.7-.4l-.1-.1c-.2-.1-.3-.3-.5-.4l-.2-.2c-.2-.1-.3-.3-.4-.4l-.1-.1c-.2-.2-.3-.4-.5-.6 0-.1-.1-.1-.2-.2s-.2-.3-.3-.4c0-.1-.1-.2-.2-.3-.1-.2-.2-.3-.2-.5-.1-.1-.1-.2-.2-.4s-.1-.3-.2-.5c0-.1-.1-.2-.1-.4 0-.1-.1-.2-.1-.4 0-.1-.1-.3-.1-.4s0-.2-.1-.3c-.1-.3-.1-.6-.1-.9v-.2-.5-.2c0-.6 0-1.2.1-1.9.2-1.7.9-3.4 1.9-4.7h0c-16.4-12.8-34.3-23.8-51.7-35.4h0 0c-.1 1-.2 2-.2 3v.3c-.1 1-.1 2.1-.1 3.1h0v3.1.4c0 1.1.1 2.1.2 3.2h0l.3 3.2v.4c.1 1.1.3 2.2.5 3.3h0l.6 3.3c0 .1.1.3.1.5.2 1.1.5 2.3.8 3.4l.9 3.4c0 .2.1.4.1.5.3 1.2.7 2.4 1 3.6l1.2 3.5c.1.2.1.4.2.6.4 1.2.9 2.4 1.3 3.7v.1c.4 1.2.9 2.4 1.4 3.6l.3.6c.5 1.2 1.1 2.5 1.6 3.8v.1c.6 1.2 1.1 2.5 1.7 3.7.1.2.2.5.3.7.6 1.3 1.2 2.6 1.9 3.9 0 0 0 .1.1.1.6 1.3 1.3 2.5 2 3.8.1.3.3.5.4.8.7 1.3 1.5 2.6 2.2 4 0 0 0 .1.1.1.7 1.3 1.5 2.6 2.3 3.9.2.3.3.6.5.9.8 1.4 1.6 2.8 2.5 4.1l.1.1c.8 1.3 1.7 2.6 2.6 4l.6.9c.9 1.4 1.9 2.8 2.8 4.2 0 0 .1.1.1.2.9 1.4 1.9 2.7 2.9 4.1.2.3.5.7.7 1l3.1 4.3.1.1c1 1.4 2.1 2.8 3.2 4.2l.8 1.1c1.1 1.5 2.3 3 3.4 4.4l.1.1c1.1 1.5 2.3 2.9 3.5 4.4.3.4.6.7.9 1.1 1.2 1.5 2.5 3 3.8 4.6l.1.1 3.8 4.5c.3.4.7.8 1 1.2 1.3 1.6 2.7 3.1 4.1 4.7v.1l4.2 4.7c.4.4.7.8 1.1 1.2 1.5 1.6 2.9 3.2 4.5 4.8 1.4-.7 2.8-1.5 4-2.5 1.6-1.2 3-2.6 4.4-4.1 1.9-2.2 3.6-4.8 5-7.5 3-6 4.7-12.8 4.8-19 .8-30.5-31.9-36.7-24-50.2h0c.2-.3.3-.5.6-.8l.2-.2c.2-.2.3-.4.5-.6.1 0 .1-.1.1-.1.2-.2.4-.4.7-.6l.1-.1c.3-.2.6-.4.8-.6h0c-.7-1.1-1.7-2-2.7-3h0 0z" fill="#87c4ba"/></svg>