<svg xmlns="http://www.w3.org/2000/svg" viewBox="0 0 710 710" xmlns:v="https://vecta.io/nano"><g fill="#ee8589"><path d="M45.7 265l-1.9-3.9 1.9 3.9zm-14.5-56.1l.2-3-.2 3zm-.1 3.5l.1-3.1c-.1 1-.1 2-.1 3.1zm.2 6.6l-.2-3.2.2 3.2zm.9 7l-.5-3.3c.1 1 .3 2.2.5 3.3z"/><path d="M31.6 222.2l-.3-3.2.3 3.2zm-.5-6.8v-3.1 3.1zm62.7 41.1c-.1 0-.2.1-.3.1.1-.1.2-.1.3-.1zm-61.1-27.2l-.6-3.3.6 3.3zm60.1 27.5c-.1 0-.2.1-.3.1.1-.1.2-.1.3-.1zm1.9-.8c-.1.1-.2.1-.3.1.1 0 .2 0 .3-.1zm-3 1c-.1 0-.2 0-.3.1.1-.1.2-.1.3-.1zm4.6-2l-.1.1s0-.1.1-.1zm.6-.7s0 .1 0 0c0 .1 0 0 0 0zm-6.7 2.8c-.3 0-.7 0-1-.1.4.1.7.1 1 .1zm5.3-1.6c-.1.1-.1.1-.2.1.1 0 .2 0 .2-.1zm-33.7 36.4l-2.8-4.2 2.8 4.2zm-3.4-5.2l-2.6-4c.8 1.4 1.7 2.7 2.6 4zm6.4 9.4l-2.9-4.1 2.9 4.1zm-9.1-13.5l-2.5-4.1 2.5 4.1zm-3-4.9l-2.3-3.9 2.3 3.9zm27 38.1l-3.5-4.4 3.5 4.4zm-3.6-4.5l-3.4-4.4 3.4 4.4zm-42.5-78.1l-.8-3.4.8 3.4zm35 68.2l-3.1-4.3 3.1 4.3zm3.3 4.4l-3.2-4.2 3.2 4.2zm-33.6-57.3c-.5-1.2-.9-2.5-1.3-3.7l1.3 3.7zm-2.7-7.8c-.4-1.2-.7-2.4-1-3.6l1 3.6z"/><path d="M36.8 244.3l-1.2-3.5 1.2 3.5zm-2.3-7.7l-.9-3.4.9 3.4zm13.2 32.3l-2-3.8 2 3.8zm-4.3-8.5l-1.7-3.7 1.7 3.7zm-3.6-8.2l-1.4-3.6 1.4 3.6zm10.5 21.5l-2.2-4 2.2 4zm-8.6-17.1l-1.6-3.8 1.6 3.8zm57.1 1.2l.1-.1-.1.1zm218 258.1h-1.3 1.3zm-3.8 0h-1.2 1.2zm-3.8 0h-1.1c.3-.1.7-.1 1.1 0zm-7.7-.5h-.6.6zm3.9.3c-.3 0-.6 0-.9-.1.3.1.6.1.9.1zm-221-194.2l-3.8-4.6 3.8 4.6zM332.7 515c-.5.1-.9.1-1.4.1.5 0 .9 0 1.4-.1zm-4.1.4c-.5 0-1 .1-1.4.1.5-.1 1-.1 1.4-.1zm-7.9.4h-1.4 1.4zm-36.8-3.1zm40.7 2.9c-.5 0-.9.1-1.4.1.5 0 1-.1 1.4-.1zm-58.5-8.8c-.1 0-.2-.1-.3-.2 0 .1.2.1.3.2zm14.7 5.2c-.1 0-.2 0-.3-.1.1 0 .2 0 .3.1zm-11.9-4c-.1-.1-.3-.1-.4-.2.1.1.3.1.4.2zm-8.3-4s-.1 0-.1-.1c0 .1 0 .1.1.1zm2.7 1.5c-.1 0-.2-.1-.2-.1s.1 0 .2.1zm14.4 5.6c-.1 0-.3-.1-.4-.1.2 0 .3.1.4.1zm-3-.9c-.1 0-.3-.1-.4-.1.1 0 .3 0 .4.1zM518.2 557l.2-.2c-.1 0-.1.1-.2.2zm-246.4-47.9a.76.76 0 0 1-.4-.2c.1.1.2.2.4.2zM81.1 248.9v-.2.2zm2.8 5.8c-.2-.1-.3-.3-.4-.4l.4.4z"/><path d="M84.5 255.3c-.2-.1-.3-.3-.5-.4.2.1.4.2.5.4zm-1.2-1.2c-.2-.2-.3-.4-.5-.6.2.2.4.4.5.6zm2 1.7c-.2-.1-.5-.3-.7-.4.3.1.5.3.7.4zm590.8 268.6l-3 6.2c4.3-7.4 6.7-15.9 6.3-25.7-3.1-74.7-81.3-152-90.5-149.8v-.1c9.2 2.2 87.4-75.1 90.5-149.8 3.3-80-175.5-75.9-175.5-75.9C414.9 14.4 355 1.3 355 1.3s-59.9 13.1-148.9 127.9c-95.8-2.3-169 20.8-174.7 76.8 17.4 11.6 35.2 22.6 51.7 35.4h0c1.5-2 3.9-3.3 7.1-3.3 8.9 0 11.3 10 7.3 15.5 1 .9 2 1.9 3 2.8h0c3-2 7.1-2.5 10-.4 33.2 21.3 53.3 68.2 2.5 103.7h0c-29 20-77.8 82.3-82.3 145.2-2.8 67.1 122.6 75.1 163 75.9-33.5-.7-125.4-6.2-154.3-46.3 5 .7 10 1.3 15.1 1.6 20.5 1.5 41.1 0 61.4-2.8 30.8-4.2 61.6-12.8 89.8-25.9 11.6-5.4 23.9-12.3 32.6-22.1-15.7-19.9-22.1-49.4-18.2-88.2-.1-12.2 18.9-12.2 19 0-7.8 75.9 25.1 109.5 101.4 98.1 12-2.9 17 15.1 5 18.3-3.4.5-6.8 1-10.1 1.3.3 0 .7-.1 1-.1 19 9.1 39.3 15.5 59.8 20 45.2 9.8 91.8 10.9 138 8.7 19.1-13.8 42.1-22.7 65.8-25.7 5.1-.7 9.5 4.9 9.5 9.5 0 5.6-4.4 8.8-9.5 9.5-5.5.7-11 1.8-16.4 3.3 30.9-2.8 62.6-6.6 92.5-15.6h0zm-43.5-11.8c12.2 0 12.2 19 0 19s-12.3-19 0-19zM88 256.9c-.3-.1-.6-.1-.9-.2.3 0 .6.1.9.2zm-1.9-.7l-.6-.3.6.3zm-3.4-2.9c-.1-.1-.2-.3-.3-.4a1.38 1.38 0 0 1 .3.4zm4.3 3.3c-.2-.1-.5-.2-.7-.3.3.1.5.2.7.3zm-4.7-4c-.1-.2-.2-.3-.2-.5 0 .2.1.3.2.5zm-1.1-6.4zm-.1 2v-.2.2zm40.4 61.5c-.2 8.9-3.7 19.3-9.8 26.5 6.1-7.2 9.6-17.6 9.8-26.5.8-30.5-31.9-36.7-24-50.2h0 0c-7.9 13.5 24.9 19.7 24 50.2z"/><path d="M107.3 340.3c1.6-1.2 3-2.6 4.4-4.1-1.3 1.5-2.8 2.9-4.4 4.1zM89 257c-.2 0-.5-.1-.7-.1.2.1.4.1.7.1zm-7.1-5.3c-.1-.2-.1-.3-.2-.5 0 .2.1.4.2.5zm-.3-.8c0-.1-.1-.2-.1-.4 0 .1 0 .2.1.4zm-.3-.8c0-.1 0-.2-.1-.3.1.1.1.2.1.3zM586.7 574c-.8.1-1.5.3-2.2.4l2.2-.4zm-76.6-8.1c-.2.2-.4.4-.5.7.2-.3.3-.5.5-.7zm-15.3 24.6l-1.7 3.9 1.7-3.9zm12.8-21.4c-.2.3-.4.6-.6.8.2-.2.4-.5.6-.8zm-4.8 6.8c-.3.4-.5.8-.8 1.3l.8-1.3zm2.3-3.4l-.7 1 .7-1zm-4.5 6.9l-.9 1.5.9-1.5zm-2.1 3.6l-1 1.8c.4-.6.7-1.2 1-1.8zM103.3 342.7l-4.5-4.8 4.5 4.8zM93.5 332l-4.1-4.7 4.1 4.7zm4.7-73.5l-.2.2.2-.2zm-.4 78.2l-4.2-4.7 4.2 4.7zm1.8-79.7s0 .1 0 0c0 .1 0 .1 0 0zm100.8 323.9H199h1.4zm-1.5-.1c-1.5 0-3.2 0-5.1-.1l5.1.1zm297.7 5.9l-1.1 2.3 1.1-2.3zm16.2-24c-.1.2-.3.3-.4.5.1-.1.2-.3.4-.5zm2.8-3c-.1.1-.2.2-.3.4 0-.2.1-.3.3-.4zm5.8-5.8c0 .1-.1.1-.2.2.1-.1.1-.2.2-.2zm3.1-2.8s-.1 0 0 0c-.1 0-.1 0 0 0zm-436.1-225l-3.8-4.5 3.8 4.5zm442.5 219.7h0 0zm-3.3 2.6z"/></g><path d="M97.5 253.6h0c-.2.2-.4.5-.6.7l-.1.1-.6.6c-.1 0-.1.1-.1.1-.2.2-.4.3-.6.5-.1.1-.1.1-.2.1-.2.1-.4.2-.6.4-.1 0-.2.1-.3.1l-.6.3c-.1 0-.2.1-.3.1-.2.1-.4.1-.7.2-.1 0-.2.1-.4.1-.2.1-.5.1-.8.1-.1 0-.2 0-.3.1-.4 0-.8.1-1.2.1-.3 0-.7 0-1-.1h-.3c-.2 0-.5-.1-.7-.1-.1 0-.2 0-.2-.1-.3-.1-.6-.1-.9-.2h-.1c-.2-.1-.5-.2-.7-.3-.1 0-.2-.1-.2-.1l-.6-.3c-.1 0-.1-.1-.2-.1-.2-.1-.5-.3-.7-.4-.1 0-.1-.1-.1-.1-.2-.1-.3-.3-.5-.4l-.2-.2-.4-.4-.1-.1c-.2-.2-.3-.4-.5-.6l-.2-.2c-.1-.1-.2-.3-.3-.4 0-.1-.1-.2-.2-.3-.1-.2-.2-.3-.2-.5-.1-.1-.1-.2-.2-.4s-.1-.3-.2-.5c0-.1-.1-.2-.1-.4 0-.1-.1-.2-.1-.4 0-.1-.1-.3-.1-.4s0-.2-.1-.3c-.1-.3-.1-.6-.1-.9v-.2-.5-.2c0-.6 0-1.2.1-1.9.2-1.7.9-3.4 1.9-4.7h0c-16.4-12.8-34.3-23.8-51.7-35.4h0 0c-.1 1-.2 2-.2 3v.3c0 1-.1 2.1-.1 3.1h0v3.1.4c0 1.1.1 2.1.2 3.2h0l.3 3.2v.4c.1 1.1.3 2.2.5 3.3h0l.6 3.3c0 .1.1.3.1.5.2 1.1.5 2.3.8 3.4l.9 3.4c0 .2.1.4.1.5.3 1.2.7 2.4 1 3.6l1.2 3.5c.1.2.1.4.2.6.4 1.2.9 2.4 1.3 3.7v.1c.5 1.2.9 2.4 1.4 3.6l.3.6c.5 1.2 1 2.5 1.6 3.8v.1c.5 1.2 1.1 2.5 1.7 3.7.1.2.2.5.3.7.6 1.3 1.2 2.6 1.9 3.9v.1c.6 1.3 1.3 2.5 2 3.8.1.3.3.5.4.8.7 1.3 1.5 2.6 2.2 4 0 0 0 .1.1.1.7 1.3 1.5 2.6 2.3 3.9.2.3.3.6.5.9a90.04 90.04 0 0 0 2.5 4.1l.1.1c.8 1.3 1.7 2.6 2.6 4l.6.9c.9 1.4 1.8 2.8 2.8 4.2 0 0 .1.1.1.2.9 1.4 1.9 2.7 2.9 4.1.2.3.5.7.7 1l3.1 4.3.1.1c1 1.4 2.1 2.8 3.2 4.2l.8 1.1c1.1 1.5 2.3 3 3.4 4.4l.1.1c1.1 1.5 2.3 2.9 3.5 4.4.3.4.6.7.9 1.1 1.2 1.5 2.5 3 3.8 4.6l.1.1 3.8 4.5c.3.4.7.8 1 1.2 1.3 1.6 2.7 3.1 4.1 4.7l.1.1 4.2 4.7c.4.4.7.8 1.1 1.2 1.5 1.6 2.9 3.2 4.5 4.8 1.4-.7 2.8-1.5 4-2.5 1.6-1.2 3-2.6 4.4-4.1 6.1-7.1 9.6-17.5 9.8-26.5.8-30.5-31.9-36.7-24-50.2h0c.2-.3.3-.5.6-.8l.2-.2c.2-.2.3-.4.5-.6.1 0 .1-.1.1-.1.2-.2.4-.4.7-.6 0 0 .1 0 .1-.1.3-.2.6-.4.8-.6h0c-.6-1.1-1.6-2-2.6-3h0zm569.7 285c.1-.2.3-.3.4-.4l1.2-1.4c.1-.2.3-.3.4-.5.4-.5.7-1 1.1-1.4.1-.2.2-.3.4-.5l1.1-1.5c.1-.2.2-.3.3-.4l1-1.6c0-.1.1-.1.1-.2 1.2-2 2.2-4 3-6.2-30 9-61.6 12.9-92.5 15.5h0 0c-1.4.4-2.8.8-4.2 1.3-.2.1-.4.1-.5.2-1.4.4-2.7.9-4.1 1.4-.1 0-.2.1-.2.1l-4 1.5c-.1 0-.2.1-.3.1-1.3.5-2.7 1.1-4 1.7-.2.1-.4.2-.6.2-2.6 1.2-5.2 2.5-7.8 3.9-.2.1-.3.2-.5.3l-3.7 2.1c-.2.1-.4.2-.5.3-1.2.7-2.4 1.5-3.6 2.3l-3.5 2.4c-.2.2-.4.3-.6.4-1.1.8-2.2 1.6-3.3 2.5-.2.1-.3.2-.5.4-1 .8-2 1.6-3 2.5-.1.1-.2.2-.4.3-1 .9-2.1 1.8-3.1 2.7l-.6.6c-1 .9-2 1.9-3 2.9l-.3.3c-.9.9-1.8 1.9-2.7 2.8l-.5.5c-.9 1-1.8 2-2.6 3-.2.2-.3.4-.5.6-.9 1.1-1.7 2.2-2.6 3.2.7 0 1.4-.1 2.1-.1h.7c.5 0 1 0 1.5-.1h.9c.5 0 .9 0 1.4-.1.3 0 .6 0 1-.1.4 0 .9 0 1.4-.1.4 0 .7 0 1.1-.1.4 0 .9 0 1.3-.1.4 0 .7 0 1.1-.1.5 0 .9 0 1.4-.1.4 0 .8-.1 1.1-.1.5 0 1-.1 1.5-.1.4 0 .7-.1 1.1-.1.6 0 1.2-.1 1.8-.1s1.1-.1 1.7-.1 1.1-.1 1.7-.1c.4 0 .9-.1 1.3-.1.5 0 .9-.1 1.4-.1s1-.1 1.4-.1.9-.1 1.3-.1c.5 0 1-.1 1.5-.1.4 0 .8-.1 1.3-.1s1.1-.1 1.6-.2c.4 0 .8-.1 1.3-.1.5-.1 1.1-.1 1.6-.2.4 0 .8-.1 1.2-.1.6-.1 1.1-.1 1.7-.2.4 0 .7-.1 1.1-.1.6-.1 1.2-.1 1.9-.2h.3l5-.6h.4l2.1-.3c.3 0 .6-.1.9-.1l2-.3c.3-.1.7-.1 1-.2l2-.3c.3 0 .7-.1 1.1-.2l2-.3c.3-.1.7-.1 1-.2l2.1-.3c.3-.1.6-.1.9-.2.7-.1 1.5-.3 2.2-.4.2 0 .4-.1.6-.1l10.9-2.2c.2 0 .3-.1.5-.1.8-.2 1.6-.3 2.3-.5.2-.1.5-.1.8-.2.8-.2 1.5-.4 2.2-.5.3-.1.5-.1.8-.2.8-.2 1.5-.4 2.2-.6.2-.1.5-.1.8-.2l2.3-.6c.2-.1.4-.1.6-.2.8-.2 1.6-.4 2.4-.7.1 0 .1 0 .2-.1l10.9-3.4c.1 0 .2-.1.3-.1.8-.3 1.5-.6 2.3-.8.2-.1.4-.1.6-.2.7-.3 1.5-.6 2.2-.8.2-.1.4-.2.6-.2.7-.3 1.4-.6 2.1-.8.2-.1.4-.2.6-.2.7-.3 1.4-.6 2.2-.9.1-.1.3-.1.4-.2 4.2-1.8 8.1-3.8 11.9-5.9.1 0 .2-.1.2-.1.7-.4 1.3-.8 1.9-1.1.2-.1.3-.2.5-.3.6-.4 1.2-.8 1.8-1.1.2-.1.3-.2.5-.3.6-.4 1.2-.8 1.7-1.2.2-.1.3-.2.5-.3.6-.4 1.2-.8 1.7-1.2.1-.1.2-.2.4-.3.6-.4 1.2-.9 1.8-1.3h0c2.6-2 5-4.2 7.1-6.4l.3-.3c.3-.7.7-1.2 1.2-1.7h0zm-270.9-4c-20.5-4.4-40.8-10.8-59.8-20-.3 0-.7.1-1 .1l-2.8.3c-.5 0-.9.1-1.4.1-.9.1-1.8.2-2.6.2-.5 0-1 .1-1.4.1-.9.1-1.7.1-2.6.2-.5 0-.9.1-1.4.1-.9 0-1.7.1-2.5.1h-1.4c-.9 0-1.7 0-2.5.1h-1.3-2.6-1.2c-.9 0-1.8 0-2.6-.1h-1.1c-.9 0-1.8-.1-2.7-.1h-.9c-1-.1-2-.1-3-.2h-.6c-6-.5-11.6-1.4-17-2.6h-.1c-1-.2-2.1-.5-3.1-.8-.1 0-.2 0-.3-.1-.9-.2-1.9-.5-2.8-.8-.1 0-.3-.1-.4-.1-.9-.3-1.8-.5-2.6-.8-.1 0-.3-.1-.4-.1l-2.5-.9a.76.76 0 0 1-.4-.2c-.8-.3-1.6-.6-2.4-1-.1-.1-.3-.1-.4-.2-.8-.3-1.6-.7-2.4-1-.1 0-.2-.1-.3-.2l-2.4-1.2c-.1 0-.2-.1-.2-.1-.8-.4-1.7-.9-2.5-1.3 0 0-.1 0-.1-.1-8.7-4.8-16.1-11-22.2-18.7h0c-8.7 9.8-21 16.7-32.6 22.1-28.2 13.2-59 21.7-89.8 25.9-20.3 2.8-40.9 4.2-61.4 2.8-5-.4-10.1-.9-15.1-1.6 28.9 40.1 120.8 45.7 154.3 46.3h.1c1.9 0 3.6.1 5.1.1h.1 1.4.1 2.3.1.9.1.8 1.1.3 0 .1C295.1 695.6 355 708.7 355 708.7s55.1-12.1 138.1-114.3c.5-1.3 1.1-2.6 1.7-3.9.2-.5.5-1 .7-1.5.4-.8.7-1.5 1.1-2.3.3-.6.7-1.3 1-1.9s.6-1.2 1-1.8l1.2-2.1.9-1.5 1.4-2.3c.3-.4.5-.8.8-1.3.5-.8 1.1-1.6 1.6-2.4.2-.3.5-.7.7-1 .6-.8 1.2-1.7 1.8-2.5.2-.3.4-.6.6-.8l2-2.6c.2-.2.4-.4.5-.7.7-.9 1.5-1.8 2.2-2.7.1-.2.3-.3.4-.5l2.4-2.7c.1-.1.2-.2.3-.4.9-.9 1.7-1.8 2.6-2.7l.2-.2c.9-.9 1.9-1.8 2.8-2.7l.2-.2 3-2.7.1-.1c1-.9 2.1-1.8 3.1-2.7 1.1-.9 2.2-1.7 3.3-2.6h0c1.1-.8 2.2-1.7 3.4-2.5h0c-46 2.4-92.6 1.3-137.8-8.5h0z" fill="#cd5e89"/></svg>