<svg xmlns="http://www.w3.org/2000/svg" viewBox="0 0 710 710" xmlns:v="https://vecta.io/nano"><g fill="#fc6"><path d="M31.2 208.9l.2-3-.2 3zM673 530.7c-.3.6-.7 1.1-1 1.6.3-.5.7-1 1-1.6zm-1.3 2.1c-.3.5-.7 1-1.1 1.5l1.1-1.5zm-1.4 2c-.4.5-.7 1-1.1 1.4l1.1-1.4zM31.1 215.4v-3.1 3.1zm637.7 321.4l-1.2 1.4 1.2-1.4zM31.3 219l-.2-3.2.2 3.2z"/><path d="M31.6 222.2l-.3-3.2.3 3.2zm-.5-9.8l.1-3.1c-.1 1-.1 2-.1 3.1zm636.1 326.2c-.4.5-.9 1-1.3 1.4l1.3-1.4zM91.7 257c-.1 0-.2 0-.3.1.1-.1.2-.1.3-.1zm1.1-.2c-.1 0-.2.1-.3.1.1-.1.2-.1.3-.1zm-16.7 54.5l-3.4-4.4 3.4 4.4zM88 256.9c-.3-.1-.6-.1-.9-.2.3 0 .6.1.9.2zm6.7-.9c-.1.1-.2.1-.3.1.1 0 .2 0 .3-.1zm2.2-1.7s0 .1 0 0c0 .1 0 0 0 0zM89 257c-.2 0-.5-.1-.7-.1.2.1.4.1.7.1zm7.3-2l-.1.1s0-.1.1-.1zm-.8.5c-.1.1-.1.1-.2.1.1 0 .2 0 .2-.1zm-5.3 1.6c-.3 0-.7 0-1-.1.4.1.7.1 1 .1zm-37.5 20.6l-2.3-3.9 2.3 3.9zm3 4.9l-2.5-4.1 2.5 4.1zm-5.4-8.9l-2.2-4 2.2 4zm-2.6-4.8l-2-3.8 2 3.8zm10.7 17.8l-2.6-4c.8 1.4 1.7 2.7 2.6 4zm6.4 9.4l-2.9-4.1 2.9 4.1zm3.8 5.3l-3.1-4.3 3.1 4.3zm3.3 4.4l-3.2-4.2 3.2 4.2zM32.2 226l-.5-3.3c.1 1 .3 2.2.5 3.3zm29.6 65.9l-2.8-4.2 2.8 4.2zM45.7 265l-1.9-3.9 1.9 3.9zm-11.2-28.4l-.9-3.4.9 3.4z"/><path d="M33.6 233.2l-.8-3.4.8 3.4zm2 7.5c-.4-1.2-.7-2.4-1-3.6l1 3.6zm-2.9-11.4l-.6-3.3.6 3.3zm5.6 19.2c-.5-1.2-.9-2.5-1.3-3.7l1.3 3.7z"/><path d="M36.8 244.3l-1.2-3.5 1.2 3.5zm4.9 12.3l-1.6-3.8 1.6 3.8zm-1.9-4.4l-1.4-3.6 1.4 3.6zm3.6 8.2l-1.7-3.7 1.7 3.7zm50.4-3.9c-.1 0-.2.1-.3.1.1-.1.2-.1.3-.1zm187 255.5c-.1 0-.2 0-.3-.1.1 0 .2 0 .3.1zm20.7 3.4h-.6.6zm-29.7-6.3a.76.76 0 0 1-.4-.2c.1.1.2.2.4.2zm2.9 1.1c-.1 0-.3-.1-.4-.1.1 0 .3 0 .4.1zm3 .9c-.1 0-.3-.1-.4-.1.2 0 .3.1.4.1zm6.2 1.6zm21.5 3c-.3 0-.6 0-.9-.1.3.1.6.1.9.1zm11.4.2h-1.3 1.3zM87 256.6c-.2-.1-.5-.2-.7-.3.3.1.5.2.7.3zm222.1 259.3H308c.4-.1.8-.1 1.1 0zM518.2 557l.2-.2c-.1 0-.1.1-.2.2zm-197.5-41.2h-1.4 1.4zm-51.8-7.8c-.1-.1-.3-.1-.4-.2.1.1.3.1.4.2zm389.6 38.8c2.6-2 5-4.2 7.1-6.4-2.2 2.2-4.6 4.4-7.1 6.4zm-458.1 34.1h2.3-2.3zm475.7-56.5l-3 6.2c4.3-7.4 6.7-15.9 6.3-25.7-3.1-74.7-81.3-152-90.5-149.8v-.1c9.2 2.2 87.4-75.1 90.5-149.8 3.3-80-175.5-75.9-175.5-75.9C414.9 14.4 355 1.3 355 1.3s-59.9 13.1-148.9 127.9c-95.8-2.3-169 20.8-174.7 76.8 17.4 11.6 35.2 22.6 51.7 35.4h0c1.5-2 3.9-3.3 7.1-3.3 8.9 0 11.3 10 7.3 15.5 1 .9 2 1.9 3 2.8h0c3-2 7.1-2.5 10-.4 33.2 21.3 53.3 68.2 2.5 103.7h0c-29 20-77.8 82.3-82.3 145.2-.5 11.5 2.8 21.3 8.8 29.6 5 .7 10 1.3 15.1 1.6 20.5 1.5 41.1 0 61.4-2.8 30.8-4.2 61.6-12.8 89.8-25.9 11.6-5.4 23.9-12.3 32.6-22.1-15.7-19.9-22.1-49.4-18.2-88.2-.1-12.2 18.9-12.2 19 0-7.8 75.9 25.1 109.5 101.4 98.1 12-2.9 17 15.1 5 18.3-3.4.5-6.8 1-10.1 1.3.3 0 .7-.1 1-.1 19 9.1 39.3 15.5 59.8 20 45.2 9.8 91.8 10.9 138 8.7 19.1-13.8 42.1-22.7 65.8-25.7 5.1-.7 9.5 4.9 9.5 9.5 0 5.6-4.4 8.8-9.5 9.5-5.5.7-11 1.8-16.4 3.3 30.8-2.7 62.5-6.6 92.4-15.6h0zm-43.5-11.8c12.2 0 12.2 19 0 19s-12.3-19 0-19zm-366.5-5.8c-.1 0-.2-.1-.3-.2 0 .1.2.1.3.2z"/><path d="M39.4 534.4c28.9 40.1 120.8 45.7 154.3 46.3-33.4-.6-125.3-6.2-154.3-46.3zm223.9-28.9c-.1 0-.2-.1-.2-.1s.1 0 .2.1zm-2.7-1.5s-.1 0-.1-.1c0 .1 0 .1.1.1zm52.4 11.9h-1.2 1.2zm11.6-.3c-.5 0-.9.1-1.4.1.5 0 1-.1 1.4-.1zm-242.3-263c-.1-.2-.2-.3-.2-.5 0 .2.1.3.2.5zm.4.7c-.1-.1-.2-.3-.3-.4a1.38 1.38 0 0 1 .3.4zm-1.1-2.4c0-.1-.1-.2-.1-.4 0 .1 0 .2.1.4zm.3.8c-.1-.2-.1-.3-.2-.5 0 .2.1.4.2.5zm4.2 4.5l-.6-.3.6.3zm-2.2-1.5c-.2-.1-.3-.3-.4-.4l.4.4zm1.4 1.1c-.2-.1-.5-.3-.7-.4.3.1.5.3.7.4z"/><path d="M84.5 255.3c-.2-.1-.3-.3-.5-.4.2.1.4.2.5.4zm-1.2-1.2c-.2-.2-.3-.4-.5-.6.2.2.4.4.5.6zm15.5 3.7l.1-.1-.1.1zM332.7 515c-.5.1-.9.1-1.4.1.5 0 .9 0 1.4-.1zm-4.1.4c-.5 0-1 .1-1.4.1.5-.1 1-.1 1.4-.1zM121.5 309.7c-.2 8.9-3.7 19.3-9.8 26.5 6.1-7.2 9.6-17.6 9.8-26.5.8-30.5-31.9-36.7-24-50.2h0 0c-7.9 13.5 24.9 19.7 24 50.2zm-40.4-60.8v-.2.2zm.2 1.2c0-.1 0-.2-.1-.3.1.1.1.2.1.3z"/><path d="M107.3 340.3c1.6-1.2 3-2.6 4.4-4.1-1.3 1.5-2.8 2.9-4.4 4.1zm-26.2-92.1v-.2.2zm.1-2zm117.7 334.6c-1.5 0-3.2 0-5.1-.1l5.1.1zm347.4-1.6c-.4 0-.9.1-1.3.1.4 0 .8 0 1.3-.1zm-3 .3c-.6 0-1.1.1-1.7.1.5 0 1.1-.1 1.7-.1zm-8.6.5c-.4 0-.7 0-1.1.1.3 0 .7 0 1.1-.1zm2.5-.1c-.4 0-.8 0-1.1.1.3-.1.7-.1 1.1-.1zm2.5-.2c-.4 0-.7.1-1.1.1.4 0 .8 0 1.1-.1zm9.4-.7c-.5 0-.9.1-1.4.1.4 0 .9-.1 1.4-.1zm14.6-1.5c-.6.1-1.2.2-1.9.2.6 0 1.2-.1 1.9-.2zm-3 .3l-1.7.2c.5 0 1.1-.1 1.7-.2zm-8.7.9c-.5.1-1 .1-1.5.1.4 0 .9 0 1.5-.1zm2.8-.2c-.5.1-1.1.1-1.6.2.6-.1 1.1-.2 1.6-.2zm2.9-.3c-.5.1-1.1.1-1.6.2.5-.1 1.1-.2 1.6-.2zm11.3-1.4l-5 .6c1.6-.1 3.3-.3 5-.6zm-37.4-6.7l3-2.9c-1.1.9-2.1 1.9-3 2.9zm-6.1 6.6l2.6-3-2.6 3z"/><path d="M528.6 573.2l2.7-2.8-2.7 2.8zm10-9.6l3.1-2.5-3.1 2.5zm-3.5 3l3.1-2.7-3.1 2.7zm-5.3 13.7h-1 1zm2.4-.1h-1.1 1.1zm-4.7.2h-.9.9zm-5.1.2a40.31 40.31 0 0 1 2.6-3.2 40.31 40.31 0 0 0-2.6 3.2zm2.8-.1h-.7.7zm88-12.6l-2.4.7 2.4-.7zm19.2-6.5l-2.1.8 2.1-.8zm-2.8 1.1c-.7.3-1.4.6-2.2.8.7-.3 1.5-.6 2.2-.8zm5.5-2.3l-2.2.9 2.2-.9zm-8.2 3.3l-2.3.8c.7-.2 1.5-.5 2.3-.8zm-2.7.9c-3.6 1.2-7.2 2.4-10.9 3.4 3.8-1 7.4-2.1 10.9-3.4zm32.1-16l-1.7 1.2 1.7-1.2zm-114.2 12.4l3.3-2.5-3.3 2.5h0zm112-10.8l-1.7 1.2c.6-.5 1.1-.8 1.7-1.2zm-4.5 2.9c-.6.4-1.3.8-1.9 1.1.6-.4 1.2-.8 1.9-1.1zm-2.2 1.3c-3.7 2.1-7.7 4.1-11.9 5.9 4.2-1.9 8.1-3.8 11.9-5.9zm4.5-2.7l-1.8 1.1 1.8-1.1zm-53.7 20.2c-3.6.8-7.3 1.5-10.9 2.2 3.6-.6 7.3-1.4 10.9-2.2zm-17.7 3.4l-2 .3 2-.3zm3.1-.5l-2.1.3 2.1-.3zm-6.1 1l-2 .3 2-.3zm-3.1.5l-2 .3 2-.3zm12.3-2.1c-.8.1-1.5.3-2.2.4l2.2-.4zm23.5-5.2l-2.3.6 2.3-.6zm-3.1.8l-2.2.6 2.2-.6zm-3 .8l-2.2.5c.7-.2 1.4-.4 2.2-.5zm-32.6 6.1l-2.1.3 2.1-.3zm29.6-5.4l-2.3.5c.7-.2 1.5-.4 2.3-.5zm-91-5.2c-.2.2-.4.4-.5.7.2-.3.3-.5.5-.7zm-13.5 20.8l-1.1 2.3 1.1-2.3zm-290.5-5.9zm288.7 9.7l-1.7 3.9 1.7-3.9zM206 580.8h-.3.3zm-1.4 0h-.8.8z"/><path d="M205.7 580.8h-1.1 1.1zm292.8 2.2l-1 1.8c.4-.6.7-1.2 1-1.8zm9.1-13.9c-.2.3-.4.6-.6.8.2-.2.4-.5.6-.8zm-4.8 6.8c-.3.4-.5.8-.8 1.3l.8-1.3zm-2.2 3.5l-.9 1.5.9-1.5zm4.5-6.9l-.7 1 .7-1zM88.4 326.1l-3.8-4.5 3.8 4.5zm5.1 5.9l-4.1-4.7 4.1 4.7zm4.3 4.7l-4.2-4.7 4.2 4.7zm-13.4-15.2l-3.8-4.6 3.8 4.6zm574.1 225.3c-.6.5-1.2.9-1.8 1.3l1.8-1.3zm-454.7 34h-.9.9zM103.3 342.7l-4.5-4.8 4.5 4.8zm97.1 238.2H199h1.4zM99.6 257s0 .1 0 0c0 .1 0 .1 0 0zm-1.4 1.5l-.2.2.2-.2zm455.5 294.3l3.7-2.1-3.7 2.1zm-26.1-4.4zm-3.1 2.7s-.1 0 0 0c-.1 0-.1 0 0 0zm6.4-5.3h0 0zm27 4.6l7.8-3.9-7.8 3.9zm16.9-7.6l4.1-1.4-4.1 1.4zm-4.3 1.6l4-1.6-4 1.6zm8.9-3.2l4.2-1.3-4.2 1.3zm-29.8 14.2l3.6-2.3-3.6 2.3zm16.7-9.2l4-1.7-4 1.7zm-53.5 16.5c-.1.2-.3.3-.4.5.1-.1.2-.3.4-.5zM79.7 315.8l-3.5-4.4 3.5 4.4zm435.9 243.9c-.1.1-.2.2-.3.4 0-.2.1-.3.3-.4zm30.4-1.9l3.5-2.4-3.5 2.4zm-24.6-3.9c0 .1-.1.1-.2.2.1-.1.1-.2.2-.2z"/></g><path d="M396.3 534.6c-20.5-4.4-40.8-10.8-59.8-20-.3 0-.7.1-1 .1l-2.8.3c-.5 0-.9.1-1.4.1-.9.1-1.8.2-2.6.2-.5 0-1 .1-1.4.1-.9.1-1.7.1-2.6.2-.5 0-.9.1-1.4.1-.9 0-1.7.1-2.5.1h-1.4c-.9 0-1.7 0-2.5.1h-1.3-2.6-1.2c-.9 0-1.8 0-2.6-.1h-1.1c-.9 0-1.8-.1-2.7-.1h-.9c-1-.1-2-.1-3-.2h-.6c-6-.5-11.6-1.4-17-2.6h-.1c-1-.2-2.1-.5-3.1-.8-.1 0-.2 0-.3-.1-.9-.2-1.9-.5-2.8-.8-.1 0-.3-.1-.4-.1-.9-.3-1.8-.5-2.6-.8-.1 0-.3-.1-.4-.1l-2.5-.9a.76.76 0 0 1-.4-.2c-.8-.3-1.6-.6-2.4-1-.1-.1-.3-.1-.4-.2-.8-.3-1.6-.7-2.4-1-.1 0-.2-.1-.3-.2l-2.4-1.2c-.1 0-.2-.1-.2-.1-.8-.4-1.7-.9-2.5-1.3 0 0-.1 0-.1-.1-8.7-4.8-16.1-11-22.2-18.7h0c-8.7 9.8-21 16.7-32.6 22.1-28.2 13.2-59 21.7-89.8 25.9-20.3 2.8-40.9 4.2-61.4 2.8-5-.4-10.1-.9-15.1-1.6h0 0c28.9 40.1 120.8 45.7 154.3 46.3h.1c1.9 0 3.6.1 5.1.1h.1 1.4.1 2.3.1.9.1.8 1.1.3 0 .1C295.1 695.6 355 708.7 355 708.7s55.1-12.1 138.1-114.3c.5-1.3 1.1-2.6 1.7-3.9.2-.5.5-1 .7-1.5.4-.8.7-1.5 1.1-2.3.3-.6.7-1.3 1-1.9s.6-1.2 1-1.8l1.2-2.1.9-1.5 1.4-2.3c.3-.4.5-.8.8-1.3.5-.8 1.1-1.6 1.6-2.4.2-.3.5-.7.7-1 .6-.8 1.2-1.7 1.8-2.5.2-.3.4-.6.6-.8l2-2.6c.2-.2.4-.4.5-.7.7-.9 1.5-1.8 2.2-2.7.1-.2.3-.3.4-.5l2.4-2.7c.1-.1.2-.2.3-.4.9-.9 1.7-1.8 2.6-2.7l.2-.2c.9-.9 1.9-1.8 2.8-2.7l.2-.2 3-2.7.1-.1c1-.9 2.1-1.8 3.1-2.7 1.1-.9 2.2-1.7 3.3-2.6h0c1.1-.8 2.2-1.7 3.4-2.5h0c-46 2.4-92.6 1.3-137.8-8.5h0zm270.9 4c.1-.2.3-.3.4-.4l1.2-1.4c.1-.2.3-.3.4-.5.4-.5.7-1 1.1-1.4.1-.2.2-.3.4-.5l1.1-1.5c.1-.2.2-.3.3-.4l1-1.6c0-.1.1-.1.1-.2 1.2-2 2.2-4 3-6.2-30 9-61.6 12.9-92.5 15.5h0 0c-1.4.4-2.8.8-4.2 1.3-.2.1-.4.1-.5.2-1.4.4-2.7.9-4.1 1.4-.1 0-.2.1-.2.1l-4 1.5c-.1 0-.2.1-.3.1-1.3.5-2.7 1.1-4 1.7-.2.1-.4.2-.6.2-2.6 1.2-5.2 2.5-7.8 3.9-.2.1-.3.2-.5.3l-3.7 2.1c-.2.1-.4.2-.5.3-1.2.7-2.4 1.5-3.6 2.3l-3.5 2.4c-.2.2-.4.3-.6.4-1.1.8-2.2 1.6-3.3 2.5-.2.1-.3.2-.5.4-1 .8-2 1.6-3 2.5-.1.1-.2.2-.4.3-1 .9-2.1 1.8-3.1 2.7l-.6.6c-1 .9-2 1.9-3 2.9l-.3.3c-.9.9-1.8 1.9-2.7 2.8l-.5.5c-.9 1-1.8 2-2.6 3-.2.2-.3.4-.5.6-.9 1.1-1.7 2.2-2.6 3.2.7 0 1.4-.1 2.1-.1h.7c.5 0 1 0 1.5-.1h.9c.5 0 .9 0 1.4-.1.3 0 .6 0 1-.1.4 0 .9 0 1.4-.1.4 0 .7 0 1.1-.1.4 0 .9 0 1.3-.1.4 0 .7 0 1.1-.1.5 0 .9 0 1.4-.1.4 0 .8-.1 1.1-.1.5 0 1-.1 1.5-.1.4 0 .7-.1 1.1-.1.6 0 1.2-.1 1.8-.1s1.1-.1 1.7-.1 1.1-.1 1.7-.1c.4 0 .9-.1 1.3-.1.5 0 .9-.1 1.4-.1s1-.1 1.4-.1.9-.1 1.3-.1c.5 0 1-.1 1.5-.1.4 0 .8-.1 1.3-.1s1.1-.1 1.6-.2c.4 0 .8-.1 1.3-.1.5-.1 1.1-.1 1.6-.2.4 0 .8-.1 1.2-.1.6-.1 1.1-.1 1.7-.2.4 0 .7-.1 1.1-.1.6-.1 1.2-.1 1.9-.2h.3l5-.6h.4l2.1-.3c.3 0 .6-.1.9-.1l2-.3c.3-.1.7-.1 1-.2l2-.3c.3 0 .7-.1 1.1-.2l2-.3c.3-.1.7-.1 1-.2l2.1-.3c.3-.1.6-.1.9-.2.7-.1 1.5-.3 2.2-.4.2 0 .4-.1.6-.1l10.9-2.2c.2 0 .3-.1.5-.1.8-.2 1.6-.3 2.3-.5.2-.1.5-.1.8-.2.8-.2 1.5-.4 2.2-.5.3-.1.5-.1.8-.2.8-.2 1.5-.4 2.2-.6.2-.1.5-.1.8-.2l2.3-.6c.2-.1.4-.1.6-.2.8-.2 1.6-.4 2.4-.7.1 0 .1 0 .2-.1l10.9-3.4c.1 0 .2-.1.3-.1.8-.3 1.5-.6 2.3-.8.2-.1.4-.1.6-.2.7-.3 1.5-.6 2.2-.8.2-.1.4-.2.6-.2.7-.3 1.4-.6 2.1-.8.2-.1.4-.2.6-.2.7-.3 1.4-.6 2.2-.9.1-.1.3-.1.4-.2 4.2-1.8 8.1-3.8 11.9-5.9.1 0 .2-.1.2-.1.7-.4 1.3-.8 1.9-1.1.2-.1.3-.2.5-.3.6-.4 1.2-.8 1.8-1.1.2-.1.3-.2.5-.3.6-.4 1.2-.8 1.7-1.2.2-.1.3-.2.5-.3.6-.4 1.2-.8 1.7-1.2.1-.1.2-.2.4-.3.6-.4 1.2-.9 1.8-1.3h0c2.6-2 5-4.2 7.1-6.4l.3-.3c.3-.7.7-1.2 1.2-1.7h0zm-569.7-285h0c-.2.2-.4.5-.6.7l-.1.1-.6.6c-.1 0-.1.1-.1.1-.2.2-.4.3-.6.5-.1.1-.1.1-.2.1-.2.1-.4.2-.6.4-.1 0-.2.1-.3.1l-.6.3c-.1 0-.2.1-.3.1-.2.1-.4.1-.7.2-.1 0-.2.1-.4.1-.2.1-.5.1-.8.1-.1 0-.2 0-.3.1-.4 0-.8.1-1.2.1-.3 0-.7 0-1-.1h-.3c-.2 0-.5-.1-.7-.1-.1 0-.2 0-.2-.1-.3-.1-.6-.1-.9-.2h-.1c-.2-.1-.5-.2-.7-.3-.1 0-.2-.1-.2-.1l-.6-.3c-.1 0-.1-.1-.2-.1-.2-.1-.5-.3-.7-.4-.1 0-.1-.1-.1-.1-.2-.1-.3-.3-.5-.4l-.2-.2-.4-.4-.1-.1c-.2-.2-.3-.4-.5-.6l-.2-.2c-.1-.1-.2-.3-.3-.4 0-.1-.1-.2-.2-.3-.1-.2-.2-.3-.2-.5-.1-.1-.1-.2-.2-.4s-.1-.3-.2-.5c0-.1-.1-.2-.1-.4 0-.1-.1-.2-.1-.4 0-.1-.1-.3-.1-.4s0-.2-.1-.3c-.1-.3-.1-.6-.1-.9v-.2-.5-.2c0-.6 0-1.2.1-1.9.2-1.7.9-3.4 1.9-4.7h0c-16.4-12.8-34.3-23.8-51.7-35.4h0 0c-.1 1-.2 2-.2 3v.3c0 1-.1 2.1-.1 3.1h0v3.1.4c0 1.1.1 2.1.2 3.2h0l.3 3.2v.4c.1 1.1.3 2.2.5 3.3h0l.6 3.3c0 .1.1.3.1.5.2 1.1.5 2.3.8 3.4l.9 3.4c0 .2.1.4.1.5.3 1.2.7 2.4 1 3.6l1.2 3.5c.1.2.1.4.2.6.4 1.2.9 2.4 1.3 3.7v.1c.5 1.2.9 2.4 1.4 3.6l.3.6c.5 1.2 1.1 2.5 1.6 3.8v.1c.5 1.2 1.1 2.5 1.7 3.7.1.2.2.5.3.7.6 1.3 1.2 2.6 1.9 3.9v.1c.6 1.3 1.3 2.5 2 3.8.1.3.3.5.4.8.7 1.3 1.5 2.6 2.2 4 0 0 0 .1.1.1.7 1.3 1.5 2.6 2.3 3.9.2.3.3.6.5.9a90.04 90.04 0 0 0 2.5 4.1l.1.1c.8 1.3 1.7 2.6 2.6 4l.6.9c.9 1.4 1.8 2.8 2.8 4.2 0 0 .1.1.1.2.9 1.4 1.9 2.7 2.9 4.1.2.3.5.7.7 1l3.1 4.3.1.1c1 1.4 2.1 2.8 3.2 4.2l.8 1.1c1.1 1.5 2.3 3 3.4 4.4l.1.1c1.1 1.5 2.3 2.9 3.5 4.4.3.4.6.7.9 1.1 1.2 1.5 2.5 3 3.8 4.6l.1.1 3.8 4.5c.3.4.7.8 1 1.2 1.3 1.6 2.7 3.1 4.1 4.7l.1.1 4.2 4.7c.4.4.7.8 1.1 1.2 1.5 1.6 2.9 3.2 4.5 4.8 1.4-.7 2.8-1.5 4-2.5 1.6-1.2 3-2.6 4.4-4.1 6.1-7.1 9.6-17.5 9.8-26.5.8-30.5-31.9-36.7-24-50.2h0c.2-.3.3-.5.6-.8l.2-.2c.2-.2.3-.4.5-.6.1 0 .1-.1.1-.1.2-.2.4-.4.7-.6 0 0 .1 0 .1-.1.3-.2.6-.4.8-.6h0c-.6-1.1-1.6-2-2.6-3h0z" fill="#f79868"/></svg>